<svg width="97" height="97" viewBox="0 0 97 97" fill="none" xmlns="http://www.w3.org/2000/svg">
<g clip-path="url(#clip0)">
<path d="M72.089 0.02L59.624 0C45.62 0 36.57 9.285 36.57 23.656V34.563H24.037C22.954 34.563 22.077 35.441 22.077 36.524V52.327C22.077 53.41 22.955 54.287 24.037 54.287H36.57V94.163C36.57 95.246 37.447 96.123 38.53 96.123H54.882C55.965 96.123 56.842 95.245 56.842 94.163V54.287H71.496C72.579 54.287 73.456 53.41 73.456 52.327L73.462 36.524C73.462 36.004 73.255 35.506 72.888 35.138C72.521 34.77 72.021 34.563 71.501 34.563H56.842V25.317C56.842 20.873 57.901 18.617 63.69 18.617L72.087 18.614C73.169 18.614 74.046 17.736 74.046 16.654V1.98C74.046 0.899 73.17 0.022 72.089 0.02Z" fill="#C6CACC"/>
</g>
<defs>
<clipPath id="clip0">
<rect width="96.124" height="96.123" fill="white"/>
</clipPath>
</defs>
</svg>
